<?xml version="1.0" encoding="utf-8"?>
<!-- Generator: Adobe Illustrator 23.0.4, SVG Export Plug-In . SVG Version: 6.00 Build 0)  -->
<svg version="1.1" id="Layer_1" xmlns="http://www.w3.org/2000/svg" xmlns:xlink="http://www.w3.org/1999/xlink" x="0px" y="0px"
	 viewBox="0 0 434 431" style="enable-background:new 0 0 434 431;" xml:space="preserve">
<style type="text/css">
	.st0{fill:#DC246B;}
	.st1{fill:none;stroke:#DB2A6A;stroke-miterlimit:10;}
	.st2{fill:#FFFFFF;}
	.st3{fill:#D31C5B;}
	.st4{fill:#693895;}
	.st5{fill:none;stroke:#693895;stroke-width:0.75;stroke-miterlimit:10;}
</style>
<g>
	<path class="st0" d="M358.98,285.85c0-25.35-20.74-46.08-46.08-46.08H140.74c-25.35,0-46.08,20.74-46.08,46.08
		c0,4.53,0.67,8.9,1.9,13.04l-0.16,0l28.85,93.93c24.85,13.81,53.02,22.56,83.26,24.67c44.44,3.11,86.49-8.53,121.41-30.73
		l25.29-82.72C357.63,298.46,358.98,292.31,358.98,285.85z"/>
</g>
<circle class="st1" cx="222.5" cy="217.5" r="200.49"/>
<g>
	<path class="st0" d="M352.46,139.91c-0.43,0-0.85,0.03-1.27,0.06l-0.03-1.8c-27.82-91.3-125.21-80.86-125.21-80.86
		c-108.69-1.74-125.21,80.86-125.21,80.86v1.76c-0.15,0-0.29-0.02-0.43-0.02c-9.33,0-16.95,7.63-16.95,16.95v17.39
		c0,9.33,7.63,16.95,16.95,16.95c0.17,0,0.33-0.02,0.5-0.03c0.7,7.93,6.56,32.12,51.23,44.37h146.07c0,0,46.95-4.35,53.91-44.34
		l0-0.02c0.15,0,0.29,0.02,0.44,0.02c9.33,0,16.95-7.63,16.95-16.95v-17.39C369.41,147.54,361.78,139.91,352.46,139.91z"/>
	<path class="st2" d="M293.26,208.16h-135.5c-17.73,0-32.24-14.51-32.24-32.24V146.5c0-17.73,14.51-32.24,32.24-32.24h135.5
		c17.73,0,32.24,14.51,32.24,32.24v29.42C325.5,193.65,310.99,208.16,293.26,208.16z"/>
	<path class="st3" d="M185.61,181.21H168.9c-0.9,0-1.64-0.74-1.64-1.64v-35.84c0-0.9,0.74-1.64,1.64-1.64h16.71
		c0.9,0,1.64,0.74,1.64,1.64v35.84C187.26,180.47,186.52,181.21,185.61,181.21z"/>
	<path class="st3" d="M283.86,181.21h-16.71c-0.9,0-1.64-0.74-1.64-1.64v-35.84c0-0.9,0.74-1.64,1.64-1.64h16.71
		c0.9,0,1.64,0.74,1.64,1.64v35.84C285.51,180.47,284.77,181.21,283.86,181.21z"/>
</g>
<g>
	<path class="st2" d="M147.12,307.47c-0.26,2.74-1.27,4.88-3.03,6.41c-1.76,1.53-4.11,2.3-7.04,2.3c-2.05,0-3.85-0.48-5.41-1.46
		c-1.56-0.97-2.76-2.35-3.61-4.14c-0.85-1.79-1.29-3.86-1.32-6.23v-2.4c0-2.42,0.43-4.56,1.29-6.4s2.09-3.27,3.7-4.27
		c1.61-1,3.46-1.5,5.57-1.5c2.83,0,5.12,0.77,6.85,2.3c1.73,1.54,2.73,3.71,3.02,6.52h-4.45c-0.21-1.85-0.75-3.18-1.61-4
		c-0.86-0.82-2.13-1.23-3.8-1.23c-1.94,0-3.43,0.71-4.47,2.13c-1.04,1.42-1.57,3.5-1.6,6.24v2.28c0,2.78,0.5,4.9,1.49,6.36
		c0.99,1.46,2.45,2.19,4.37,2.19c1.75,0,3.07-0.39,3.95-1.18c0.88-0.79,1.44-2.1,1.68-3.93H147.12z"/>
	<path class="st2" d="M155.57,312.27h11.66v3.56h-16.13v-25.69h4.46V312.27z"/>
	<path class="st2" d="M191.16,303.66c0,2.52-0.44,4.73-1.31,6.62c-0.87,1.9-2.11,3.36-3.73,4.38s-3.48,1.53-5.58,1.53
		c-2.08,0-3.94-0.51-5.57-1.53s-2.89-2.47-3.78-4.35c-0.89-1.88-1.34-4.05-1.35-6.51v-1.45c0-2.5,0.44-4.72,1.33-6.63
		c0.89-1.92,2.14-3.38,3.76-4.4c1.62-1.02,3.47-1.53,5.57-1.53c2.09,0,3.95,0.5,5.57,1.51c1.62,1.01,2.87,2.45,3.75,4.34
		c0.88,1.89,1.33,4.08,1.34,6.59V303.66z M186.7,302.32c0-2.85-0.54-5.03-1.61-6.55c-1.08-1.52-2.6-2.28-4.58-2.28
		c-1.93,0-3.44,0.76-4.53,2.27c-1.09,1.51-1.64,3.65-1.67,6.41v1.48c0,2.82,0.55,5,1.65,6.55c1.1,1.54,2.63,2.31,4.58,2.31
		c1.98,0,3.5-0.75,4.56-2.26c1.06-1.51,1.6-3.71,1.6-6.6V302.32z"/>
	<path class="st2" d="M214.4,290.15v17.17c0,2.73-0.87,4.89-2.62,6.48c-1.75,1.59-4.07,2.39-6.98,2.39c-2.94,0-5.28-0.79-7-2.36
		c-1.73-1.57-2.59-3.75-2.59-6.54v-17.15h4.45v17.18c0,1.72,0.44,3.03,1.31,3.93c0.87,0.91,2.15,1.36,3.85,1.36
		c3.43,0,5.15-1.81,5.15-5.43v-17.04H214.4z"/>
	<path class="st2" d="M219.16,315.84v-25.69h7.59c2.27,0,4.29,0.51,6.04,1.52s3.12,2.45,4.08,4.3s1.45,3.99,1.45,6.39v1.29
		c0,2.43-0.49,4.58-1.46,6.42c-0.97,1.85-2.35,3.27-4.15,4.27c-1.79,1-3.85,1.5-6.17,1.5H219.16z M223.62,293.75v18.53h2.91
		c2.34,0,4.14-0.73,5.39-2.2c1.25-1.46,1.89-3.57,1.91-6.31v-1.43c0-2.79-0.61-4.92-1.82-6.39c-1.21-1.47-2.97-2.21-5.28-2.21
		H223.62z"/>
	<path class="st2" d="M242.77,315.84v-25.69h8.8c2.91,0,5.12,0.58,6.63,1.75c1.52,1.16,2.28,2.9,2.28,5.2
		c0,1.18-0.32,2.24-0.95,3.18c-0.63,0.94-1.56,1.67-2.79,2.19c1.39,0.38,2.46,1.08,3.22,2.13s1.14,2.29,1.14,3.75
		c0,2.41-0.77,4.26-2.32,5.56s-3.76,1.94-6.64,1.94H242.77z M247.23,300.96h4.38c1.39,0,2.47-0.31,3.25-0.94
		c0.78-0.63,1.17-1.52,1.17-2.67c0-1.27-0.36-2.19-1.08-2.75s-1.85-0.85-3.38-0.85h-4.34V300.96z M247.23,304.25v8.03h4.96
		c1.4,0,2.49-0.35,3.28-1.04c0.79-0.69,1.18-1.66,1.18-2.89c0-2.67-1.36-4.03-4.09-4.09H247.23z"/>
	<path class="st2" d="M286.06,303.66c0,2.52-0.44,4.73-1.31,6.62s-2.11,3.36-3.73,4.38s-3.48,1.53-5.58,1.53
		c-2.08,0-3.94-0.51-5.57-1.53s-2.89-2.47-3.78-4.35c-0.89-1.88-1.34-4.05-1.35-6.51v-1.45c0-2.5,0.44-4.72,1.33-6.63
		c0.89-1.92,2.14-3.38,3.76-4.4c1.62-1.02,3.47-1.53,5.57-1.53s3.95,0.5,5.57,1.51c1.62,1.01,2.87,2.45,3.75,4.34
		s1.33,4.08,1.34,6.59V303.66z M281.6,302.32c0-2.85-0.54-5.03-1.61-6.55c-1.08-1.52-2.6-2.28-4.58-2.28
		c-1.93,0-3.44,0.76-4.53,2.27c-1.09,1.51-1.64,3.65-1.67,6.41v1.48c0,2.82,0.55,5,1.65,6.55s2.63,2.31,4.58,2.31
		c1.98,0,3.5-0.75,4.56-2.26s1.6-3.71,1.6-6.6V302.32z"/>
	<path class="st2" d="M309.07,293.75h-8.01v22.09h-4.43v-22.09h-7.94v-3.6h20.38V293.75z"/>
	<path class="st2" d="M325.86,309.22c0-1.13-0.4-2-1.19-2.61c-0.79-0.61-2.23-1.23-4.3-1.85c-2.07-0.62-3.72-1.32-4.94-2.08
		c-2.34-1.47-3.51-3.39-3.51-5.75c0-2.07,0.84-3.78,2.53-5.12c1.69-1.34,3.88-2.01,6.57-2.01c1.79,0,3.38,0.33,4.78,0.99
		c1.4,0.66,2.5,1.6,3.3,2.81c0.8,1.22,1.2,2.57,1.2,4.05h-4.45c0-1.34-0.42-2.39-1.26-3.15c-0.84-0.76-2.04-1.14-3.61-1.14
		c-1.46,0-2.59,0.31-3.4,0.94s-1.21,1.49-1.21,2.61c0,0.94,0.43,1.73,1.31,2.35c0.87,0.63,2.3,1.24,4.3,1.83
		c2,0.59,3.6,1.27,4.82,2.03c1.21,0.76,2.1,1.63,2.66,2.61s0.85,2.13,0.85,3.45c0,2.14-0.82,3.84-2.46,5.11
		c-1.64,1.26-3.87,1.9-6.68,1.9c-1.86,0-3.57-0.34-5.12-1.03c-1.56-0.69-2.77-1.64-3.63-2.85c-0.86-1.21-1.3-2.62-1.3-4.23h4.46
		c0,1.46,0.48,2.59,1.45,3.39s2.35,1.2,4.15,1.2c1.55,0,2.72-0.31,3.5-0.94C325.47,311.09,325.86,310.26,325.86,309.22z"/>
</g>
<g>
	<path class="st2" d="M132.37,332.98c0.59-0.1,1.39-0.18,2.35-0.18c1.21,0,2.09,0.28,2.65,0.78c0.5,0.45,0.83,1.13,0.83,1.99
		c0,0.87-0.25,1.54-0.73,2.03c-0.64,0.69-1.7,1.04-2.86,1.04c-0.39,0-0.76-0.03-1.01-0.07v3.74h-1.23V332.98z M133.6,337.58
		c0.2,0.06,0.6,0.08,1.01,0.08c1.47,0,2.37-0.73,2.37-2.02c0-1.27-0.88-1.88-2.23-1.88c-0.55,0-0.94,0.04-1.15,0.08V337.58z"/>
	<path class="st2" d="M145.92,338.92c0,2.51-1.83,3.54-3.4,3.54c-1.78,0-3.22-1.33-3.22-3.52c0-2.27,1.54-3.56,3.38-3.56
		C144.56,335.39,145.92,336.75,145.92,338.92z M140.54,338.95c0,1.36,0.69,2.59,2.06,2.59c1.34,0,2.07-1.23,2.07-2.61
		c0-1.18-0.55-2.63-2.07-2.63C141.09,336.3,140.54,337.75,140.54,338.95z"/>
	<path class="st2" d="M147.95,335.55l0.91,3.43c0.21,0.74,0.36,1.47,0.5,2.17h0.04c0.14-0.7,0.36-1.43,0.6-2.16l1.12-3.45h1.02
		l1.05,3.39c0.24,0.78,0.45,1.51,0.6,2.21h0.04c0.11-0.7,0.29-1.41,0.52-2.21l0.97-3.39h1.22l-2.2,6.77h-1.12l-1.02-3.24
		c-0.24-0.76-0.43-1.43-0.6-2.23h-0.03c-0.17,0.81-0.38,1.53-0.62,2.24l-1.09,3.22h-1.12l-2.04-6.77H147.95z"/>
	<path class="st2" d="M158.46,339.15c0.03,1.67,1.08,2.35,2.33,2.35c0.88,0,1.43-0.15,1.88-0.35l0.21,0.88
		c-0.42,0.2-1.18,0.43-2.25,0.43c-2.09,0-3.33-1.39-3.33-3.42c0-2.06,1.21-3.66,3.19-3.66c2.2,0,2.79,1.93,2.79,3.18
		c0,0.25-0.03,0.45-0.06,0.57H158.46z M162.08,338.26c0.01-0.77-0.32-1.99-1.71-1.99c-1.25,0-1.79,1.13-1.89,1.99H162.08z"/>
	<path class="st2" d="M164.79,337.65c0-0.8-0.03-1.47-0.06-2.1h1.08l0.04,1.33h0.04c0.32-0.91,1.08-1.49,1.89-1.49
		c0.14,0,0.24,0,0.34,0.03v1.16c-0.11-0.03-0.24-0.04-0.41-0.04c-0.88,0-1.48,0.66-1.65,1.58c-0.04,0.17-0.06,0.38-0.06,0.56v3.63
		h-1.22V337.65z"/>
	<path class="st2" d="M170.06,339.15c0.03,1.67,1.08,2.35,2.33,2.35c0.88,0,1.43-0.15,1.88-0.35l0.21,0.88
		c-0.42,0.2-1.18,0.43-2.25,0.43c-2.09,0-3.33-1.39-3.33-3.42c0-2.06,1.21-3.66,3.19-3.66c2.2,0,2.79,1.93,2.79,3.18
		c0,0.25-0.03,0.45-0.06,0.57H170.06z M173.67,338.26c0.01-0.77-0.32-1.99-1.71-1.99c-1.25,0-1.79,1.13-1.89,1.99H173.67z"/>
	<path class="st2" d="M182.22,332.37v8.21c0,0.59,0.03,1.26,0.06,1.74h-1.09l-0.06-1.18h-0.04c-0.36,0.77-1.19,1.33-2.28,1.33
		c-1.65,0-2.91-1.39-2.91-3.43c-0.01-2.27,1.39-3.64,3.04-3.64c1.04,0,1.74,0.48,2.04,1.02h0.03v-4.05H182.22z M181.01,338.29
		c0-0.15-0.01-0.36-0.04-0.52c-0.2-0.79-0.87-1.42-1.79-1.42c-1.28,0-2.04,1.11-2.04,2.61c0,1.37,0.69,2.52,2.02,2.52
		c0.83,0,1.57-0.56,1.81-1.49c0.04-0.17,0.06-0.34,0.06-0.53V338.29z"/>
	<path class="st2" d="M187.26,332.37h1.22v4.26h0.03c0.43-0.76,1.22-1.23,2.31-1.23c1.68,0,2.87,1.4,2.87,3.45
		c0,2.42-1.55,3.63-3.05,3.63c-0.98,0-1.76-0.38-2.28-1.26h-0.03l-0.06,1.11h-1.06c0.03-0.46,0.06-1.15,0.06-1.74V332.37z
		 M188.48,339.59c0,0.15,0.01,0.31,0.06,0.45c0.24,0.87,0.97,1.44,1.85,1.44c1.3,0,2.06-1.05,2.06-2.61c0-1.36-0.7-2.52-2.03-2.52
		c-0.83,0-1.61,0.57-1.86,1.51c-0.03,0.15-0.07,0.31-0.07,0.5V339.59z"/>
	<path class="st2" d="M195.69,335.55l1.48,3.99c0.15,0.45,0.32,0.98,0.43,1.39h0.03c0.13-0.39,0.27-0.92,0.43-1.4l1.34-3.98h1.3
		l-1.85,4.82c-0.88,2.33-1.49,3.52-2.33,4.26c-0.62,0.52-1.22,0.73-1.51,0.78l-0.31-1.04c0.32-0.1,0.71-0.29,1.09-0.6
		c0.32-0.27,0.74-0.74,1.02-1.37c0.06-0.13,0.1-0.21,0.1-0.29c0-0.07-0.03-0.17-0.1-0.32l-2.49-6.23H195.69z"/>
	<path class="st2" d="M211.46,342.02c-0.45,0.21-1.34,0.45-2.51,0.45c-2.65,0-4.65-1.7-4.65-4.79c0-2.96,2-4.94,4.93-4.94
		c1.16,0,1.92,0.24,2.24,0.41l-0.29,0.99c-0.46-0.22-1.12-0.39-1.91-0.39c-2.21,0-3.68,1.41-3.68,3.89c0,2.31,1.33,3.8,3.63,3.8
		c0.74,0,1.5-0.15,1.99-0.39L211.46,342.02z"/>
	<path class="st2" d="M212.94,332.37h1.22v9.95h-1.22V332.37z"/>
	<path class="st2" d="M222.36,338.92c0,2.51-1.83,3.54-3.4,3.54c-1.78,0-3.22-1.33-3.22-3.52c0-2.27,1.54-3.56,3.38-3.56
		C221,335.39,222.36,336.75,222.36,338.92z M216.98,338.95c0,1.36,0.69,2.59,2.06,2.59c1.34,0,2.07-1.23,2.07-2.61
		c0-1.18-0.55-2.63-2.07-2.63C217.53,336.3,216.98,337.75,216.98,338.95z"/>
	<path class="st2" d="M228.55,342.31l-0.07-1.11h-0.03c-0.31,0.52-0.99,1.26-2.25,1.26c-1.32,0-2.33-0.8-2.33-2.97v-3.95h1.23v3.74
		c0,1.32,0.42,2.17,1.49,2.17c0.9,0,1.47-0.62,1.65-1.12c0.07-0.2,0.11-0.43,0.11-0.64v-4.15h1.22v4.92c0,0.71,0.03,1.3,0.06,1.85
		H228.55z"/>
	<path class="st2" d="M237.45,332.37v8.21c0,0.59,0.03,1.26,0.06,1.74h-1.09l-0.06-1.18h-0.04c-0.36,0.77-1.19,1.33-2.28,1.33
		c-1.65,0-2.91-1.39-2.91-3.43c-0.01-2.27,1.39-3.64,3.04-3.64c1.04,0,1.74,0.48,2.04,1.02h0.03v-4.05H237.45z M236.24,338.29
		c0-0.15-0.01-0.36-0.04-0.52c-0.2-0.79-0.87-1.42-1.79-1.42c-1.27,0-2.04,1.11-2.04,2.61c0,1.37,0.69,2.52,2.02,2.52
		c0.83,0,1.57-0.56,1.81-1.49c0.04-0.17,0.06-0.34,0.06-0.53V338.29z"/>
	<path class="st2" d="M249.72,341.89c-0.55,0.2-1.62,0.52-2.9,0.52c-1.43,0-2.61-0.36-3.53-1.25c-0.81-0.78-1.32-2.04-1.32-3.52
		c0.01-2.8,1.95-4.88,5.11-4.88c1.09,0,1.96,0.25,2.35,0.43l-0.29,0.99c-0.5-0.22-1.13-0.41-2.09-0.41c-2.3,0-3.8,1.43-3.8,3.8
		c0,2.4,1.43,3.81,3.64,3.81c0.8,0,1.34-0.11,1.62-0.25v-2.82h-1.92v-0.98h3.11V341.89z"/>
	<path class="st2" d="M256.17,342.31l-0.07-1.11h-0.03c-0.31,0.52-0.99,1.26-2.25,1.26c-1.32,0-2.33-0.8-2.33-2.97v-3.95h1.23v3.74
		c0,1.32,0.42,2.17,1.49,2.17c0.9,0,1.47-0.62,1.65-1.12c0.07-0.2,0.11-0.43,0.11-0.64v-4.15h1.22v4.92c0,0.71,0.03,1.3,0.06,1.85
		H256.17z"/>
	<path class="st2" d="M264,340.69c0,0.59,0.03,1.16,0.1,1.62h-1.11l-0.11-0.85h-0.03c-0.38,0.52-1.11,1.01-2.07,1.01
		c-1.36,0-2.07-0.98-2.07-1.95c0-1.64,1.46-2.54,4.08-2.51v-0.15c0-0.56-0.17-1.57-1.54-1.57c-0.63,0-1.3,0.2-1.76,0.5l-0.28-0.81
		c0.56-0.36,1.39-0.59,2.23-0.59c2.07,0,2.58,1.42,2.58,2.77V340.69z M262.81,338.87c-1.34-0.04-2.87,0.2-2.87,1.51
		c0,0.81,0.55,1.18,1.16,1.18c0.9,0,1.44-0.56,1.65-1.13c0.03-0.14,0.06-0.27,0.06-0.39V338.87z"/>
	<path class="st2" d="M265.98,337.65c0-0.8-0.03-1.47-0.06-2.1H267l0.04,1.33h0.04c0.32-0.91,1.08-1.49,1.89-1.49
		c0.14,0,0.24,0,0.34,0.03v1.16c-0.11-0.03-0.24-0.04-0.41-0.04c-0.88,0-1.49,0.66-1.65,1.58c-0.04,0.17-0.06,0.38-0.06,0.56v3.63
		h-1.22V337.65z"/>
	<path class="st2" d="M276.4,332.37v8.21c0,0.59,0.03,1.26,0.06,1.74h-1.09l-0.06-1.18h-0.04c-0.36,0.77-1.19,1.33-2.28,1.33
		c-1.65,0-2.91-1.39-2.91-3.43c-0.01-2.27,1.39-3.64,3.04-3.64c1.04,0,1.74,0.48,2.04,1.02h0.03v-4.05H276.4z M275.18,338.29
		c0-0.15-0.01-0.36-0.04-0.52c-0.2-0.79-0.87-1.42-1.79-1.42c-1.27,0-2.04,1.11-2.04,2.61c0,1.37,0.69,2.52,2.02,2.52
		c0.83,0,1.57-0.56,1.81-1.49c0.04-0.17,0.06-0.34,0.06-0.53V338.29z"/>
	<path class="st2" d="M281.47,333c0.76-0.11,1.64-0.2,2.61-0.2c1.75,0,3,0.41,3.82,1.18c0.84,0.77,1.33,1.88,1.33,3.39
		c0,1.54-0.48,2.79-1.36,3.67c-0.9,0.88-2.34,1.36-4.17,1.36c-0.87,0-1.6-0.04-2.23-0.11V333z M282.7,341.35
		c0.31,0.06,0.76,0.07,1.23,0.07c2.61,0,4.02-1.46,4.02-4.01c0.01-2.23-1.25-3.64-3.82-3.64c-0.63,0-1.11,0.07-1.43,0.13V341.35z"/>
	<path class="st2" d="M296.9,338.92c0,2.51-1.83,3.54-3.4,3.54c-1.78,0-3.22-1.33-3.22-3.52c0-2.27,1.54-3.56,3.38-3.56
		C295.54,335.39,296.9,336.75,296.9,338.92z M291.52,338.95c0,1.36,0.69,2.59,2.06,2.59c1.34,0,2.07-1.23,2.07-2.61
		c0-1.18-0.55-2.63-2.07-2.63C292.06,336.3,291.52,337.75,291.52,338.95z"/>
	<path class="st2" d="M298.45,337.37c0-0.7-0.03-1.28-0.06-1.82h1.06l0.07,1.08h0.03c0.38-0.64,1.01-1.23,2.14-1.23
		c0.92,0,1.62,0.56,1.92,1.34h0.03c0.21-0.38,0.48-0.67,0.76-0.88c0.42-0.31,0.85-0.46,1.5-0.46c0.9,0,2.23,0.57,2.23,2.93v3.99
		h-1.19v-3.82c0-1.32-0.49-2.1-1.48-2.1c-0.7,0-1.25,0.52-1.46,1.11c-0.06,0.18-0.11,0.41-0.11,0.63v4.19h-1.19v-4.06
		c0-1.08-0.49-1.86-1.41-1.86c-0.77,0-1.33,0.62-1.54,1.23c-0.06,0.18-0.08,0.41-0.08,0.6v4.09h-1.21V337.37z"/>
	<path class="st2" d="M310.81,339.15c0.03,1.67,1.08,2.35,2.33,2.35c0.88,0,1.43-0.15,1.88-0.35l0.21,0.88
		c-0.42,0.2-1.18,0.43-2.25,0.43c-2.09,0-3.33-1.39-3.33-3.42c0-2.06,1.21-3.66,3.19-3.66c2.2,0,2.79,1.93,2.79,3.18
		c0,0.25-0.03,0.45-0.06,0.57H310.81z M314.42,338.26c0.01-0.77-0.32-1.99-1.71-1.99c-1.25,0-1.79,1.13-1.89,1.99H314.42z"/>
	<path class="st2" d="M317.46,341.33c0.11,0.03,0.38,0.04,0.49,0.04c2.16,0,3.21-1.32,3.52-2.77c-0.5,0.59-1.22,0.97-2.1,0.97
		c-1.74,0-2.68-1.15-2.68-2.77c0-1.46,1.06-2.8,2.94-2.8c1.86,0,2.97,1.48,2.97,3.8c0,3.1-2.14,4.66-4.51,4.66
		c-0.17,0-0.42-0.01-0.63-0.04V341.33z M321.47,337.52c-0.04-1.3-0.64-2.48-1.93-2.48c-1.11,0-1.72,0.77-1.72,1.71
		c0,0.95,0.57,1.76,1.76,1.76C320.47,338.52,321.06,338.11,321.47,337.52z"/>
</g>
</svg>
